<?xml version="1.0" encoding="UTF-8"?>
<!DOCTYPE svg PUBLIC "-//W3C//DTD SVG 1.1//EN" "http://www.w3.org/Graphics/SVG/1.1/DTD/svg11.dtd">
<!-- Creator: CorelDRAW X7 -->
<svg xmlns="http://www.w3.org/2000/svg" xml:space="preserve" width="86.6986mm" height="86.6986mm" version="1.1" style="shape-rendering:geometricPrecision; text-rendering:geometricPrecision; image-rendering:optimizeQuality; fill-rule:evenodd; clip-rule:evenodd"
viewBox="0 0 8670 8670"
 xmlns:xlink="http://www.w3.org/1999/xlink">
 <defs>
  <style type="text/css">
   <![CDATA[
    .fil3 {fill:#FEFEFE}
    .fil0 {fill:#75838A}
    .fil1 {fill:#4A6878}
    .fil2 {fill:#FEFEFE;fill-rule:nonzero}
   ]]>
  </style>
 </defs>
 <g id="Layer_x0020_1">
  <metadata id="CorelCorpID_0Corel-Layer"/>
  <g id="_219467168">
   <path class="fil0" d="M800 0l7069 0c441,0 801,360 801,800l0 7069c0,441 -360,801 -801,801l-7069 0c-440,0 -800,-360 -800,-801l0 -7069c0,-440 360,-800 800,-800z"/>
   <path class="fil1" d="M8670 3404l0 4465c0,441 -360,801 -801,801l-5937 0 -709 -1256c-165,-172 -266,-406 -266,-663l0 -2058 404 0 -404 -716 0 -2058c0,-265 108,-506 282,-680 174,-174 415,-282 680,-282l2058 0 1898 3360 32 18 1090 1931 0 -514 -2304 -4079 0 -716 2058 0c265,0 506,108 680,282 109,109 192,244 239,394l1000 1771zm-1919 -1731l6 0c-2,0 -4,0 -6,0zm6 0l7 0c-2,0 -5,0 -7,0zm7 0l6 0c-2,0 -4,0 -6,0zm6 0l6 1c-2,0 -4,0 -6,-1zm6 1l6 1c-2,-1 -4,-1 -6,-1zm6 1l6 1c-2,-1 -4,-1 -6,-1zm6 1l6 1c-2,-1 -4,-1 -6,-1zm6 1l6 1c-2,-1 -4,-1 -6,-1zm6 1l6 1c-2,0 -4,-1 -6,-1zm6 1l6 1c-2,0 -4,-1 -6,-1zm6 1l6 2c-2,0 -4,-1 -6,-2zm6 2l6 2c-2,-1 -4,-1 -6,-2zm6 2l5 2c-1,-1 -3,-2 -5,-2zm5 2l6 2c-2,-1 -4,-2 -6,-2zm6 2l6 2c-2,-1 -4,-2 -6,-2zm6 2l5 2c-2,-1 -3,-1 -5,-2zm5 2l6 3c-2,-1 -4,-2 -6,-3zm6 3l5 2c-2,-1 -3,-2 -5,-2zm5 2l5 3c-1,-1 -3,-2 -5,-3zm5 3l6 3c-2,-1 -4,-2 -6,-3zm6 3l5 3c-2,-1 -4,-2 -5,-3zm5 3l5 3c-2,-1 -3,-2 -5,-3zm5 3l5 3c-2,-1 -3,-2 -5,-3zm5 3l5 3c-2,-1 -3,-2 -5,-3zm5 3l5 3c-2,-1 -3,-2 -5,-3zm5 3l5 4c-2,-1 -3,-2 -5,-4zm5 4l4 4c-1,-2 -3,-3 -4,-4zm4 4l5 3c-1,-1 -3,-2 -5,-3zm5 3l5 4c-2,-1 -3,-2 -5,-4zm5 4l4 4c-1,-1 -3,-3 -4,-4zm4 4l4 4c-1,-1 -3,-3 -4,-4zm4 4l5 4c-2,-1 -3,-3 -5,-4zm5 4l4 4c-2,-1 -3,-2 -4,-4zm4 4l4 5c-2,-2 -3,-3 -4,-5zm4 5l4 4c-2,-1 -3,-3 -4,-4zm4 4l4 5c-2,-2 -3,-3 -4,-5zm4 5l3 4c-1,-1 -2,-3 -3,-4zm3 4l4 5c-1,-1 -2,-3 -4,-5zm4 5l3 5c-1,-2 -2,-3 -3,-5zm3 5l4 5c-1,-2 -2,-3 -4,-5zm4 5l3 5c-1,-2 -2,-4 -3,-5zm3 5l3 5c-1,-2 -2,-4 -3,-5zm3 5l3 5c-1,-2 -2,-4 -3,-5zm3 5l3 5c-1,-2 -2,-3 -3,-5zm3 5l3 5c-1,-1 -2,-3 -3,-5zm3 5l3 6c-1,-2 -2,-4 -3,-6zm3 6l2 5c-1,-2 -1,-4 -2,-5zm2 5l3 5c-1,-1 -2,-3 -3,-5zm3 6l2 5c-1,-2 -2,-4 -2,-5zm2 5l2 6c-1,-2 -1,-4 -2,-6zm2 6l2 5c-1,-2 -1,-3 -2,-5zm-5249 5077l-4 -5c2,2 3,3 4,5zm-4 -5l-3 -5c1,2 2,4 3,5zm-3 -5l-4 -4c1,1 2,3 4,4zm-4 -4l-4 -5c2,2 3,3 4,5zm-4 -5l-3 -5c1,2 2,3 3,5zm-3 -5l-3 -5c1,2 2,3 3,5zm-3 -5l-3 -5c1,2 2,3 3,5zm-3 -5l-3 -5c1,2 2,3 3,5zm-3 -5l-3 -5c1,1 2,3 3,5zm-3 -5l-3 -6c1,2 2,4 3,6zm-3 -6l-3 -5c1,2 2,4 3,5zm-3 -5l-2 -5c0,2 1,3 2,5zm-2 -5l-3 -6c1,2 2,4 3,6zm-3 -6l-2 -5c1,2 1,3 2,5zm-2 -5l-2 -6c0,2 1,4 2,6zm-2 -6l-2 -6c0,2 1,4 2,6zm-2 -6l-2 -5c0,2 1,4 2,5zm-2 -5l-2 -6c1,2 1,4 2,6zm-2 -6l-1 -6c0,2 1,4 1,6zm-1 -6l-2 -6c1,2 1,4 2,6zm-2 -6l-1 -6c0,2 1,4 1,6zm-1 -6l-1 -6c0,2 0,4 1,6zm-1 -6l-1 -6c0,2 0,4 1,6zm-1 -6l-1 -6c0,2 0,4 1,6zm-1 -6l-1 -6c0,2 0,4 1,6zm-1 -6l-1 -6c1,2 1,4 1,6zm-1 -6l0 -6c0,2 0,4 0,6zm0 -6l0 -7c0,2 0,5 0,7zm0 -7l0 -6c0,2 0,4 0,6zm0 -4838l0 -7c0,3 0,5 0,7zm0 -7l0 -6c0,2 0,4 0,6zm0 -6l0 -6c0,2 0,4 0,6zm0 -6l1 -6c0,2 0,4 -1,6zm1 -6l1 -6c-1,2 -1,4 -1,6zm1 -6l1 -6c-1,2 -1,4 -1,6zm1 -6l1 -6c-1,2 -1,4 -1,6zm1 -6l1 -6c-1,2 -1,4 -1,6zm1 -6l1 -6c0,2 -1,4 -1,6zm1 -6l2 -6c-1,2 -1,4 -2,6zm2 -6l1 -6c0,2 -1,4 -1,6zm1 -6l2 -6c-1,2 -1,4 -2,6zm2 -6l2 -6c-1,2 -2,4 -2,6zm2 -6l2 -5c-1,2 -2,3 -2,5zm2 -5l2 -6c-1,2 -2,4 -2,6zm2 -6l2 -5c-1,1 -1,3 -2,5zm2 -5l3 -6c-1,2 -2,4 -3,6zm3 -6l2 -5c-1,1 -2,3 -2,5zm2 -5l3 -6c-1,2 -2,4 -3,6zm3 -6l3 -5c-1,2 -2,4 -3,5zm3 -5l3 -5c-1,2 -2,3 -3,5zm3 -5l3 -5c-1,1 -2,3 -3,5zm3 -5l3 -5c-1,1 -2,3 -3,5zm3 -5l3 -5c-1,1 -2,3 -3,5zm3 -5l3 -5c-1,2 -2,3 -3,5zm3 -5l4 -5c-1,2 -2,3 -4,5zm4 -5l4 -5c-2,2 -3,4 -4,5zm4 -5l3 -4c-1,1 -2,3 -3,4zm3 -4l4 -5c-1,2 -2,3 -4,5zm4 -5l4 -4c-1,1 -3,3 -4,4zm4 -4l4 -5c-1,2 -3,3 -4,5zm4 -5l4 -4c-1,2 -2,3 -4,4zm4 -4l5 -4c-2,1 -3,3 -5,4zm5 -4l4 -4c-2,1 -3,3 -4,4zm4 -4l4 -4c-1,1 -3,3 -4,4zm4 -4l5 -4c-2,2 -3,3 -5,4zm5 -4l4 -3c-1,1 -3,2 -4,3zm4 -3l5 -4c-1,1 -3,2 -5,4zm5 -4l5 -4c-2,2 -3,3 -5,4zm5 -4l5 -3c-2,1 -3,2 -5,3zm5 -3l5 -3c-2,1 -4,2 -5,3zm5 -3l5 -3c-2,1 -4,2 -5,3zm5 -3l5 -3c-2,1 -3,2 -5,3zm5 -3l5 -3c-2,1 -3,2 -5,3zm5 -3l5 -3c-1,1 -3,2 -5,3zm5 -3l6 -3c-2,1 -4,2 -6,3zm6 -3l5 -2c-2,0 -3,1 -5,2zm5 -2l5 -3c-1,1 -3,2 -5,3zm6 -3l5 -2c-2,1 -3,1 -5,2zm5 -2l6 -2c-2,0 -4,1 -6,2zm6 -2l5 -2c-1,0 -3,1 -5,2zm5 -2l6 -2c-2,0 -4,1 -6,2zm6 -2l6 -2c-2,1 -4,1 -6,2zm6 -2l6 -2c-2,1 -4,2 -6,2zm6 -2l6 -1c-2,0 -4,1 -6,1zm6 -1l6 -1c-2,0 -4,1 -6,1zm6 -1l6 -1c-2,0 -4,0 -6,1zm6 -1l6 -1c-2,0 -4,0 -6,1zm6 -1l6 -1c-2,0 -4,0 -6,1zm6 -1l6 -1c-2,0 -4,0 -6,1zm6 -1l6 -1c-2,1 -4,1 -6,1zm6 -1l6 0c-2,0 -4,0 -6,0zm6 0l7 0c-3,0 -5,0 -7,0zm7 0l6 0c-2,0 -4,0 -6,0z"/>
   <g>
    <path class="fil2" d="M1919 957l2058 0 0 716 -2058 0c-67,0 -129,27 -174,72 -44,45 -72,106 -72,174l0 2058 -716 0 0 -2058c0,-265 108,-506 282,-680 174,-174 415,-282 680,-282zm-246 3736l0 2058c0,67 28,129 72,174 45,44 107,72 174,72l2058 0 0 716 -2058 0c-265,0 -506,-108 -680,-282 -174,-174 -282,-415 -282,-680l0 -2058 716 0zm3020 -3736l2058 0c265,0 506,108 680,282 174,174 282,415 282,680l0 2058 -716 0 0 -2058c0,-68 -28,-129 -72,-174 -45,-45 -107,-72 -174,-72l-2058 0 0 -716zm3020 3736l0 2058c0,265 -108,506 -282,680 -174,174 -415,282 -680,282l-2058 0 0 -716 2058 0c67,0 129,-28 174,-72 44,-45 72,-107 72,-174l0 -2058 716 0z"/>
    <polygon class="fil3" points="5907,4335 4522,5134 3137,5934 3137,4335 3137,2736 4522,3535 "/>
   </g>
  </g>
 </g>
</svg>
