<?xml version="1.0" standalone="no"?><!-- Generator: Gravit.io --><svg xmlns="http://www.w3.org/2000/svg" xmlns:xlink="http://www.w3.org/1999/xlink" style="isolation:isolate" viewBox="178 227.344 474 145.313" width="474" height="145.313"><path d=" M 294.432 312.594 L 294.432 307.629 L 294.432 307.629 Q 294.432 291.523 299.881 283.592 L 299.881 283.592 L 299.881 283.592 Q 305.33 275.66 315.744 275.66 L 315.744 275.66 L 315.744 275.66 Q 323.313 275.66 328.338 282.199 L 328.338 282.199 L 328.338 249.383 L 345.594 249.383 L 345.594 342.383 L 330.033 342.383 L 329.246 335.723 L 329.246 335.723 Q 323.979 343.594 315.684 343.594 L 315.684 343.594 L 315.684 343.594 Q 305.391 343.594 299.972 335.723 L 299.972 335.723 L 299.972 335.723 Q 294.553 327.852 294.432 312.594 L 294.432 312.594 Z  M 311.627 307.387 L 311.627 311.928 L 311.627 311.928 Q 311.627 321.615 313.686 325.46 L 313.686 325.46 L 313.686 325.46 Q 315.744 329.305 320.648 329.305 L 320.648 329.305 L 320.648 329.305 Q 325.734 329.305 328.338 324.764 L 328.338 324.764 L 328.338 294.854 L 328.338 294.854 Q 325.795 290.01 320.709 290.01 L 320.709 290.01 L 320.709 290.01 Q 315.986 290.01 313.807 293.824 L 313.807 293.824 L 313.807 293.824 Q 311.627 297.639 311.627 307.387 L 311.627 307.387 Z  M 358.248 276.871 L 374.293 276.871 L 374.777 282.926 L 374.777 282.926 Q 380.529 275.66 389.975 275.66 L 389.975 275.66 L 389.975 275.66 Q 399.783 275.66 403.84 284.5 L 403.84 284.5 L 403.84 284.5 Q 409.471 275.66 419.885 275.66 L 419.885 275.66 L 419.885 275.66 Q 437.08 275.66 437.504 299.455 L 437.504 299.455 L 437.504 342.383 L 420.369 342.383 L 420.369 300.545 L 420.369 300.545 Q 420.369 294.854 418.795 292.432 L 418.795 292.432 L 418.795 292.432 Q 417.221 290.01 413.467 290.01 L 413.467 290.01 L 413.467 290.01 Q 408.684 290.01 406.322 295.883 L 406.322 295.883 L 406.443 297.941 L 406.443 342.383 L 389.309 342.383 L 389.309 300.666 L 389.309 300.666 Q 389.309 295.035 387.795 292.522 L 387.795 292.522 L 387.795 292.522 Q 386.281 290.01 382.406 290.01 L 382.406 290.01 L 382.406 290.01 Q 377.986 290.01 375.383 294.793 L 375.383 294.793 L 375.383 342.383 L 358.248 342.383 L 358.248 276.871 Z  M 482.854 342.383 L 482.369 336.389 L 482.369 336.389 Q 477.041 343.594 468.08 343.594 L 468.08 343.594 L 468.08 343.594 Q 459.059 343.594 454.396 337.388 L 454.396 337.388 L 454.396 337.388 Q 449.734 331.182 449.734 319.314 L 449.734 319.314 L 449.734 276.871 L 466.869 276.871 L 466.869 319.738 L 466.869 319.738 Q 466.99 329.305 473.227 329.305 L 473.227 329.305 L 473.227 329.305 Q 479.1 329.305 481.703 324.219 L 481.703 324.219 L 481.703 276.871 L 498.959 276.871 L 498.959 342.383 L 482.854 342.383 Z  M 540.191 324.824 L 540.191 324.824 L 540.191 324.824 Q 540.191 322.645 538.103 320.798 L 538.103 320.798 L 538.103 320.798 Q 536.014 318.951 528.809 315.803 L 528.809 315.803 L 528.809 315.803 Q 518.213 311.504 514.247 306.902 L 514.247 306.902 L 514.247 306.902 Q 510.281 302.301 510.281 295.459 L 510.281 295.459 L 510.281 295.459 Q 510.281 286.861 516.487 281.261 L 516.487 281.261 L 516.487 281.261 Q 522.693 275.66 532.926 275.66 L 532.926 275.66 L 532.926 275.66 Q 543.703 275.66 550.182 281.23 L 550.182 281.23 L 550.182 281.23 Q 556.66 286.801 556.66 296.186 L 556.66 296.186 L 539.525 296.186 L 539.525 296.186 Q 539.525 288.193 532.865 288.193 L 532.865 288.193 L 532.865 288.193 Q 530.141 288.193 528.385 289.889 L 528.385 289.889 L 528.385 289.889 Q 526.629 291.584 526.629 294.611 L 526.629 294.611 L 526.629 294.611 Q 526.629 296.791 528.566 298.456 L 528.566 298.456 L 528.566 298.456 Q 530.504 300.121 537.709 303.209 L 537.709 303.209 L 537.709 303.209 Q 548.184 307.084 552.513 311.837 L 552.513 311.837 L 552.513 311.837 Q 556.842 316.59 556.842 324.158 L 556.842 324.158 L 556.842 324.158 Q 556.842 332.938 550.242 338.266 L 550.242 338.266 L 550.242 338.266 Q 543.643 343.594 532.926 343.594 L 532.926 343.594 L 532.926 343.594 Q 525.721 343.594 520.211 340.778 L 520.211 340.778 L 520.211 340.778 Q 514.701 337.963 511.583 332.938 L 511.583 332.938 L 511.583 332.938 Q 508.465 327.912 508.465 322.1 L 508.465 322.1 L 524.752 322.1 L 524.752 322.1 Q 524.873 326.58 526.841 328.82 L 526.841 328.82 L 526.841 328.82 Q 528.809 331.061 533.289 331.061 L 533.289 331.061 L 533.289 331.061 Q 540.191 331.061 540.191 324.824 Z  M 585.48 276.871 L 585.48 342.383 L 568.285 342.383 L 568.285 276.871 L 585.48 276.871 Z  M 567.498 259.918 L 567.498 259.918 L 567.498 259.918 Q 567.498 255.922 570.041 253.379 L 570.041 253.379 L 570.041 253.379 Q 572.584 250.836 576.822 250.836 L 576.822 250.836 L 576.822 250.836 Q 581.061 250.836 583.604 253.379 L 583.604 253.379 L 583.604 253.379 Q 586.146 255.922 586.146 259.918 L 586.146 259.918 L 586.146 259.918 Q 586.146 263.854 583.634 266.457 L 583.634 266.457 L 583.634 266.457 Q 581.121 269.061 576.822 269.061 L 576.822 269.061 L 576.822 269.061 Q 572.523 269.061 570.011 266.457 L 570.011 266.457 L 570.011 266.457 Q 567.498 263.854 567.498 259.918 Z  M 622.414 329.365 L 622.414 329.365 L 622.414 329.365 Q 629.861 329.365 629.982 319.678 L 629.982 319.678 L 646.088 319.678 L 646.088 319.678 Q 645.967 330.395 639.488 336.994 L 639.488 336.994 L 639.488 336.994 Q 633.01 343.594 622.777 343.594 L 622.777 343.594 L 622.777 343.594 Q 610.123 343.594 603.463 335.723 L 603.463 335.723 L 603.463 335.723 Q 596.803 327.852 596.682 312.533 L 596.682 312.533 L 596.682 307.326 L 596.682 307.326 Q 596.682 291.887 603.251 283.773 L 603.251 283.773 L 603.251 283.773 Q 609.82 275.66 622.656 275.66 L 622.656 275.66 L 622.656 275.66 Q 633.494 275.66 639.73 282.351 L 639.73 282.351 L 639.73 282.351 Q 645.967 289.041 646.088 301.332 L 646.088 301.332 L 629.982 301.332 L 629.982 301.332 Q 629.922 295.822 628.166 292.855 L 628.166 292.855 L 628.166 292.855 Q 626.41 289.889 622.354 289.889 L 622.354 289.889 L 622.354 289.889 Q 617.873 289.889 615.936 293.067 L 615.936 293.067 L 615.936 293.067 Q 613.998 296.246 613.877 305.389 L 613.877 305.389 L 613.877 312.049 L 613.877 312.049 Q 613.877 320.041 614.664 323.22 L 614.664 323.22 L 614.664 323.22 Q 615.451 326.398 617.268 327.882 L 617.268 327.882 L 617.268 327.882 Q 619.084 329.365 622.414 329.365 Z  M 194.469 249.383 L 194.469 342.383 L 187.688 342.383 L 187.688 249.383 L 194.469 249.383 Z  M 220.564 276.871 L 220.564 342.383 L 213.783 342.383 L 213.783 276.871 L 220.564 276.871 Z  M 212.814 257.98 L 212.814 257.98 L 212.814 257.98 Q 212.814 255.922 213.965 254.469 L 213.965 254.469 L 213.965 254.469 Q 215.115 253.016 217.234 253.016 L 217.234 253.016 L 217.234 253.016 Q 219.354 253.016 220.534 254.469 L 220.534 254.469 L 220.534 254.469 Q 221.715 255.922 221.715 257.98 L 221.715 257.98 L 221.715 257.98 Q 221.715 260.039 220.534 261.462 L 220.534 261.462 L 220.534 261.462 Q 219.354 262.885 217.234 262.885 L 217.234 262.885 L 217.234 262.885 Q 215.115 262.885 213.965 261.462 L 213.965 261.462 L 213.965 261.462 Q 212.814 260.039 212.814 257.98 Z  M 283.896 305.449 L 283.896 312.715 L 283.896 312.715 Q 283.896 327.852 278.599 335.723 L 278.599 335.723 L 278.599 335.723 Q 273.301 343.594 262.826 343.594 L 262.826 343.594 L 262.826 343.594 Q 251.262 343.594 245.691 333.604 L 245.691 333.604 L 245.389 342.383 L 239.152 342.383 L 239.152 249.383 L 245.813 249.383 L 245.813 286.014 L 245.813 286.014 Q 251.322 275.66 262.705 275.66 L 262.705 275.66 L 262.705 275.66 Q 273.301 275.66 278.508 283.138 L 278.508 283.138 L 278.508 283.138 Q 283.715 290.615 283.896 305.449 L 283.896 305.449 Z  M 277.176 313.139 L 277.176 306.6 L 277.176 306.6 Q 277.176 294.127 273.482 288.133 L 273.482 288.133 L 273.482 288.133 Q 269.789 282.139 261.373 282.139 L 261.373 282.139 L 261.373 282.139 Q 250.172 282.139 245.813 293.945 L 245.813 293.945 L 245.813 326.398 L 245.813 326.398 Q 247.871 331.545 251.867 334.36 L 251.867 334.36 L 251.867 334.36 Q 255.863 337.176 261.494 337.176 L 261.494 337.176 L 261.494 337.176 Q 269.547 337.176 273.331 331.333 L 273.331 331.333 L 273.331 331.333 Q 277.115 325.49 277.176 313.139 L 277.176 313.139 Z " fill-rule="evenodd" fill="rgb(0,0,0)"/></svg>