<?xml version="1.0" encoding="UTF-8"?>
<!DOCTYPE svg PUBLIC "-//W3C//DTD SVG 1.1//EN" "http://www.w3.org/Graphics/SVG/1.1/DTD/svg11.dtd">
<!-- Creator: CorelDRAW X7 -->
<svg xmlns="http://www.w3.org/2000/svg" xml:space="preserve" width="86.6986mm" height="21.6746mm" version="1.1" style="shape-rendering:geometricPrecision; text-rendering:geometricPrecision; image-rendering:optimizeQuality; fill-rule:evenodd; clip-rule:evenodd"
viewBox="0 0 8670 2167"
 xmlns:xlink="http://www.w3.org/1999/xlink">
 <defs>
  <style type="text/css">
   <![CDATA[
    .fil3 {fill:#FEFEFE}
    .fil0 {fill:#75838A}
    .fil1 {fill:#4A6878}
    .fil2 {fill:#FEFEFE;fill-rule:nonzero}
    .fil4 {fill:#75838A;fill-rule:nonzero}
   ]]>
  </style>
 </defs>
 <g id="Layer_x0020_1">
  <metadata id="CorelCorpID_0Corel-Layer"/>
  <g id="_216910312">
   <g>
    <path class="fil0" d="M200 -2l1770 0c110,0 201,91 201,201l0 1770c0,110 -91,200 -201,200l-1770 0c-110,0 -200,-90 -200,-200l0 -1770c0,-110 90,-201 200,-201z"/>
    <path class="fil1" d="M2171 851l0 1118c0,110 -91,200 -201,200l-1486 0 -178 -314c-41,-44 -66,-102 -66,-166l0 -516 101 0 -101 -179 0 -515c0,-67 27,-127 70,-170 44,-44 104,-71 170,-71l516 0 475 841 8 5 273 483 0 -129 -577 -1021 0 -179 515 0c67,0 127,27 170,71 28,27 48,61 60,98l251 444zm-481 -434l2 0c-1,0 -1,0 -2,0zm2 0l1 0c0,0 -1,0 -1,0zm1 0l2 0c-1,0 -1,0 -2,0zm2 0l1 1c0,-1 -1,-1 -1,-1zm1 1l2 0c-1,0 -1,0 -2,0zm2 0l2 0c-1,0 -2,0 -2,0zm2 0l1 0c0,0 -1,0 -1,0zm1 0l2 0c-1,0 -1,0 -2,0zm2 0l1 1c0,0 -1,0 -1,-1zm1 1l1 0c0,0 0,0 -1,0zm1 0l2 1c-1,-1 -1,-1 -2,-1zm2 1l1 0c0,0 -1,0 -1,0zm1 0l2 0c-1,0 -1,0 -2,0zm2 0l1 1c0,0 -1,0 -1,-1zm1 1l2 1c-1,-1 -1,-1 -2,-1zm2 1l1 0c0,0 -1,0 -1,0zm1 0l1 1c0,-1 0,-1 -1,-1zm1 1l2 0c-1,0 -1,0 -2,0zm2 0l1 1c0,0 -1,0 -1,-1zm1 1l1 1c0,-1 0,-1 -1,-1zm1 1l2 0c-1,0 -1,0 -2,0zm2 0l1 1c0,0 -1,0 -1,-1zm1 1l1 1c0,0 -1,-1 -1,-1zm1 1l2 1c-1,0 -1,-1 -2,-1zm2 1l1 1c-1,-1 -1,-1 -1,-1zm1 1l1 1c0,-1 -1,-1 -1,-1zm1 1l1 0c0,0 -1,0 -1,0zm1 0l1 1c0,0 -1,0 -1,-1zm1 1l1 1c0,0 0,0 -1,-1zm1 1l2 1c-1,0 -1,0 -2,-1zm2 1l1 1c-1,0 -1,0 -1,-1zm1 1l1 1c-1,0 -1,0 -1,-1zm1 1l1 1c-1,0 -1,0 -1,-1zm1 1l1 2c-1,-1 -1,-1 -1,-2zm1 2l1 1c-1,-1 -1,-1 -1,-1zm1 1l1 1c-1,-1 -1,-1 -1,-1zm1 1l1 1c-1,0 -1,-1 -1,-1zm1 1l0 1c0,0 0,-1 0,-1zm0 1l1 1c0,0 0,-1 -1,-1zm1 1l1 2c0,-1 0,-1 -1,-2zm1 2l1 1c0,-1 -1,-1 -1,-1zm1 1l1 1c0,0 -1,-1 -1,-1zm1 1l1 1c-1,0 -1,-1 -1,-1zm1 1l0 2c0,-1 0,-1 0,-2zm0 2l1 1c0,-1 0,-1 -1,-1zm1 1l1 1c-1,0 -1,-1 -1,-1zm1 1l0 2c0,-1 0,-1 0,-2zm0 2l1 1c0,0 0,-1 -1,-1zm1 1l1 1c-1,0 -1,-1 -1,-1zm1 1l0 2c0,-1 0,-1 0,-2zm0 2l1 1c-1,0 -1,-1 -1,-1zm-1314 1271l-1 -1c0,0 1,0 1,1zm-1 -1l-1 -1c0,0 1,0 1,1zm-1 -1l-1 -2c0,1 1,1 1,2zm-1 -2l-1 -1c1,1 1,1 1,1zm-1 -1l-1 -1c1,0 1,1 1,1zm-1 -1l0 -1c0,0 0,1 0,1zm0 -1l-1 -2c0,1 0,1 1,2zm-1 -2l-1 -1c0,1 1,1 1,1zm-1 -1l-1 -1c1,0 1,1 1,1zm-1 -1l0 -1c0,0 0,0 0,1zm0 -1l-1 -2c0,1 0,1 1,2zm-1 -2l-1 -1c0,0 1,1 1,1zm-1 -1l0 -2c0,1 0,1 0,2zm0 -2l-1 -1c0,1 0,1 1,1zm-1 -1l0 -1c0,0 0,1 0,1zm0 -1l-1 -2c0,1 0,1 1,2zm-1 -2l0 -1c0,0 0,1 0,1zm0 -1l-1 -2c0,1 0,1 1,2zm-1 -2l0 -1c0,0 0,1 0,1zm0 -1l-1 -2c0,1 1,1 1,2zm-1 -2l0 -1c0,0 0,1 0,1zm0 -1l0 -2c0,1 0,1 0,2zm0 -2l-1 -1c1,0 1,1 1,1zm-1 -1l0 -2c0,1 0,1 0,2zm0 -2l0 -1c0,0 0,1 0,1zm0 -1l0 -2c0,1 0,1 0,2zm0 -2l0 -1c0,0 0,1 0,1zm0 -1l0 -2c0,1 0,1 0,2zm0 -2l0 -1c0,0 0,1 0,1zm0 -1211l0 -2c0,1 0,1 0,2zm0 -2l0 -1c0,0 0,1 0,1zm0 -1l0 -2c0,1 0,1 0,2zm0 -2l0 -1c0,0 0,1 0,1zm0 -1l0 -2c0,1 0,1 0,2zm0 -2l0 -1c0,0 0,1 0,1zm0 -1l1 -2c0,1 0,1 -1,2zm1 -2l0 -2c0,1 0,1 0,2zm0 -2l0 -1c0,1 0,1 0,1zm0 -1l1 -1c0,0 -1,1 -1,1zm1 -1l0 -2c0,1 0,1 0,2zm0 -2l1 -1c-1,0 -1,1 -1,1zm1 -1l0 -2c0,1 0,1 0,2zm0 -2l1 -1c-1,0 -1,1 -1,1zm1 -1l0 -2c0,1 0,1 0,2zm0 -2l1 -1c-1,0 -1,1 -1,1zm1 -1l0 -1c0,0 0,1 0,1zm0 -1l1 -2c0,1 -1,1 -1,2zm1 -2l1 -1c-1,0 -1,1 -1,1zm1 -1l0 -1c0,0 0,0 0,1zm0 -1l1 -2c0,1 0,1 -1,2zm1 -2l1 -1c0,0 -1,1 -1,1zm1 -1l1 -1c-1,0 -1,1 -1,1zm1 -1l0 -1c0,0 0,0 0,1zm0 -1l1 -2c0,1 0,1 -1,2zm1 -2l1 -1c0,0 0,1 -1,1zm1 -1l1 -1c0,0 -1,1 -1,1zm1 -1l1 -1c0,0 -1,1 -1,1zm1 -1l1 -1c0,0 -1,0 -1,1zm1 -1l1 -1c0,0 -1,0 -1,1zm1 -1l1 -2c0,1 -1,1 -1,2zm1 -2l1 -1c0,1 -1,1 -1,1zm1 -1l1 -1c0,1 -1,1 -1,1zm1 -1l1 -1c0,1 -1,1 -1,1zm1 -1l1 -1c0,1 -1,1 -1,1zm1 -1l1 -1c0,1 0,1 -1,1zm1 -1l2 -1c-1,1 -1,1 -2,1zm2 -1l1 0c-1,0 -1,0 -1,0zm1 0l1 -1c-1,0 -1,0 -1,1zm1 -1l1 -1c0,0 -1,0 -1,1zm1 -1l1 -1c0,0 0,1 -1,1zm1 -1l2 -1c-1,0 -1,1 -2,1zm2 -1l1 -1c-1,1 -1,1 -1,1zm1 -1l1 0c0,0 -1,0 -1,0zm1 0l1 -1c0,0 0,0 -1,1zm1 -1l2 -1c-1,1 -1,1 -2,1zm2 -1l1 0c0,0 -1,0 -1,0zm1 0l1 -1c0,0 0,0 -1,1zm2 -1l1 0c-1,0 -1,0 -1,0zm1 0l1 -1c0,0 -1,0 -1,1zm1 -1l2 -1c-1,1 -1,1 -2,1zm2 -1l1 0c0,0 -1,0 -1,0zm1 0l2 0c-1,0 -1,0 -2,0zm2 0l1 -1c0,0 -1,0 -1,1zm1 -1l2 0c-1,0 -1,0 -2,0zm2 0l1 -1c0,1 -1,1 -1,1zm1 -1l2 0c-1,0 -1,0 -2,0zm2 0l1 0c0,0 -1,0 -1,0zm1 0l2 0c-1,0 -1,0 -2,0zm2 0l1 0c0,0 -1,0 -1,0zm1 0l2 -1c-1,0 -1,0 -2,1zm2 -1l1 0c0,0 -1,0 -1,0zm1 0l2 0c-1,0 -1,0 -2,0zm2 0l1 0c0,0 -1,0 -1,0z"/>
    <g>
     <path class="fil2" d="M480 238l516 0 0 179 -516 0c-16,0 -32,7 -43,18 -11,12 -18,27 -18,44l0 515 -179 0 0 -515c0,-67 27,-127 70,-170 44,-44 104,-71 170,-71zm-61 935l0 516c0,16 7,32 18,43 11,11 27,18 43,18l516 0 0 179 -516 0c-66,0 -126,-27 -170,-70 -43,-44 -70,-104 -70,-170l0 -516 179 0zm756 -935l515 0c67,0 127,27 170,71 44,43 71,103 71,170l0 515 -179 0 0 -515c0,-17 -7,-32 -18,-44 -12,-11 -27,-18 -44,-18l-515 0 0 -179zm756 935l0 516c0,66 -27,126 -71,170 -43,43 -103,70 -170,70l-515 0 0 -179 515 0c17,0 32,-7 44,-18 11,-11 18,-27 18,-43l0 -516 179 0z"/>
     <polygon class="fil3" points="1479,1084 1132,1284 785,1484 785,1084 785,683 1132,884 "/>
    </g>
   </g>
   <path class="fil4" d="M3091 1573l-218 0 0 -979 218 -29 0 1008zm147 -848c0,-33 11,-61 34,-84 23,-23 51,-34 84,-34 33,0 61,11 84,34 22,22 34,50 34,84 0,33 -12,61 -35,84 -22,24 -50,35 -83,35 -32,0 -60,-11 -83,-35 -24,-24 -35,-52 -35,-84zm227 848l-218 0 0 -618 218 -29 0 647zm374 -142c16,4 29,7 40,9 10,2 20,3 29,3 42,0 77,-17 105,-52 29,-34 43,-77 43,-130 0,-48 -12,-86 -36,-115 -23,-29 -54,-43 -91,-43 -11,0 -23,2 -38,8 -15,5 -32,13 -52,24l0 296zm-215 172l0 -1009 215 -29 0 417c28,-14 54,-24 79,-32 26,-7 51,-10 74,-10 84,0 152,29 205,89 52,60 78,138 78,234 0,101 -31,183 -93,245 -62,62 -144,94 -245,94 -13,0 -27,-1 -43,-3 -16,-1 -34,-4 -54,-7l-78 -19 -138 30zm1178 -491c-13,-7 -25,-13 -37,-16 -11,-3 -23,-4 -34,-4 -41,0 -76,17 -103,51 -28,34 -42,77 -42,129 0,48 12,89 36,121 25,32 55,48 90,48 14,0 28,-2 43,-8 15,-6 31,-15 47,-27l0 -294zm215 -547l0 1008 -188 30 -9 -48c-30,16 -59,29 -89,36 -29,8 -59,12 -89,12 -87,0 -154,-29 -203,-86 -48,-57 -73,-136 -73,-237 0,-106 29,-191 86,-255 57,-64 132,-96 226,-96 22,0 43,2 64,6 20,4 40,11 60,20l0 -361 215 -29zm786 1008l-215 0 0 -354c0,-31 -7,-56 -21,-73 -13,-17 -32,-25 -57,-25 -35,0 -62,13 -82,38 -20,26 -30,62 -30,110l0 304 -215 0 0 -618 200 0 0 104c36,-42 71,-73 106,-92 35,-19 73,-29 114,-29 45,0 83,10 112,28 30,19 55,49 75,90 30,-39 63,-69 99,-88 36,-20 75,-30 117,-30 69,0 120,20 152,58 33,39 49,99 49,179l0 398 -215 0 0 -354c0,-31 -6,-56 -20,-73 -13,-17 -32,-25 -57,-25 -36,0 -63,13 -83,38 -20,26 -29,62 -29,110l0 304zm963 -618l214 0 0 618 -199 30 0 -121c-33,41 -68,72 -105,91 -36,20 -76,30 -120,30 -65,0 -115,-19 -149,-56 -34,-38 -51,-93 -51,-165l0 -427 215 0 0 366c0,33 6,58 20,74 13,17 33,25 59,25 37,0 66,-12 86,-38 20,-25 30,-62 30,-109l0 -318zm372 590l0 -170c55,35 97,59 127,71 30,12 58,18 84,18 22,0 40,-5 54,-15 14,-10 21,-23 21,-39 0,-13 -5,-25 -15,-34 -9,-9 -26,-18 -49,-26l-80 -28c-52,-18 -91,-43 -118,-75 -27,-33 -40,-71 -40,-115 0,-62 21,-112 65,-150 43,-37 101,-56 173,-56 34,0 69,4 106,14 37,9 79,24 125,44l-27 150c-28,-24 -58,-42 -90,-55 -33,-13 -63,-20 -91,-20 -21,0 -39,5 -52,15 -13,10 -20,22 -20,37 0,13 4,23 11,31 8,7 25,15 51,24l74 27c58,20 100,45 125,74 25,30 37,68 37,115 0,68 -22,122 -67,162 -45,39 -106,59 -183,59 -38,0 -75,-5 -111,-14 -37,-9 -73,-24 -110,-44zm583 -820c0,-33 12,-61 35,-84 22,-23 50,-34 83,-34 34,0 62,11 84,34 23,22 34,50 34,84 0,33 -11,61 -34,84 -23,24 -51,35 -84,35 -32,0 -59,-11 -83,-35 -23,-24 -35,-52 -35,-84zm228 848l-218 0 0 -618 218 -29 0 647zm701 -35c-38,22 -75,38 -112,48 -37,10 -75,16 -114,16 -103,0 -187,-31 -253,-93 -67,-62 -100,-140 -100,-235 0,-98 36,-181 107,-247 71,-67 161,-100 268,-100 39,0 78,5 115,13 38,9 74,23 109,41l-24 192c-34,-21 -67,-36 -98,-47 -31,-11 -60,-16 -87,-16 -49,0 -89,15 -121,44 -32,30 -48,66 -48,110 0,47 15,84 44,112 30,29 69,43 118,43 30,0 62,-7 96,-20 35,-13 75,-34 120,-63l-20 202z"/>
  </g>
 </g>
</svg>
